<svg version="1.1" id="Layer_1" xmlns="http://www.w3.org/2000/svg" xmlns:xlink="http://www.w3.org/1999/xlink" x="0px" y="0px"
	 width="60px" height="60px" viewBox="0 0 292 170" enable-background="new 0 0 292 170" xml:space="preserve">
    <defs>
        <linearGradient id="blueToPurple" x1="0%" y1="0%" x2="100%" y2="100%">
            <stop offset="0%" style="stop-color:rgb(0,0,255);stop-opacity:1" />
			<stop offset="100%" style="stop-color:rgb(128,0,128);stop-opacity:1" />
        </linearGradient>
    </defs>
	<path fill="url(#blueToPurple)" opacity="1.000000" stroke="none" 	d="
M293.000000,31.000000
	C293.000000,77.644440 293.000000,124.288879 293.000000,170.966660
	C195.735260,170.966660 98.470497,170.966660 1.102868,170.966660
	C1.102868,114.429062 1.102868,57.857880 1.102868,1.143349
	C98.333176,1.143349 195.666565,1.143349 293.000000,1.143349
	C293.000000,9.070215 293.000000,17.066429 292.749207,25.856596
	C287.678040,24.171427 282.857697,21.692303 277.702393,19.034954
	C274.980499,18.204279 272.593597,17.551830 269.952759,16.645718
	C268.522430,16.227793 267.346069,16.063534 265.919373,15.672358
	C264.784119,15.348660 263.899139,15.251882 262.772278,15.069942
	C262.362488,15.017421 262.194641,15.050062 261.664856,14.927755
	C259.244873,14.497492 257.186859,14.222178 255.120682,13.934649
	C255.112534,13.922434 255.086365,13.904665 254.705261,13.736000
	C245.545319,14.012910 236.766449,14.458486 227.582230,14.881454
	C224.125107,15.616121 221.073364,16.373396 217.648666,17.110168
	C214.155090,18.301529 211.034454,19.513391 207.552673,20.783960
	C203.750778,22.765343 200.310028,24.688019 196.534363,26.722744
	C193.453979,28.861309 190.708542,30.887821 187.642532,33.022560
	C184.240433,36.292995 181.158905,39.455204 177.809143,42.774967
	C175.039352,46.342682 172.537796,49.752838 169.776550,53.369690
	C160.989868,66.662643 155.982269,81.013062 153.523575,96.998962
	C157.334366,96.998962 160.574661,96.998962 164.202225,96.998962
	C162.198914,111.767586 162.876709,125.678406 170.232956,138.899353
	C173.261978,142.512741 176.097443,145.831589 179.070648,149.455566
	C182.471283,151.842972 185.734161,153.925201 189.216949,156.278717
	C192.287369,157.652908 195.137894,158.755814 198.310776,160.021484
	C200.272293,160.505295 201.911453,160.826309 203.878342,161.394409
	C207.475342,162.035934 210.744644,162.430374 214.452835,162.900055
	C217.264099,162.963928 219.636459,162.952576 222.454956,163.009460
	C226.341156,162.747650 229.781204,162.417633 233.525131,162.130646
	C234.222641,162.070908 234.616287,161.968155 235.260101,161.911148
	C235.674149,161.913467 235.838028,161.870026 236.245300,161.882996
	C236.488693,161.939438 236.961227,161.776917 237.345627,161.810577
	C240.171417,161.240448 242.612823,160.636688 245.442734,160.049927
	C248.556473,159.241943 251.281677,158.416962 254.347595,157.507721
	C258.168365,155.962967 261.648438,154.502518 265.457062,152.908112
	C268.226685,151.541290 270.667786,150.308426 273.486145,149.018082
	C274.756012,146.305099 275.824158,143.694061 276.510284,140.986237
	C279.165527,130.507309 281.698975,119.997551 284.359741,109.165733
	C279.871735,109.165733 275.935059,109.165733 271.624329,109.093369
	C268.508911,110.403809 265.767609,111.786621 262.683167,113.225449
	C258.859772,115.144722 255.379532,117.007980 251.530823,118.898521
	C248.452789,120.001404 245.743256,121.077011 242.646362,122.130447
	C239.809555,122.704842 237.360092,123.301407 234.486847,123.835342
	C232.058868,123.830971 230.054657,123.889236 227.742584,123.769119
	C225.627258,123.090401 223.819794,122.590050 221.766541,121.864914
	C219.729095,120.350395 217.937454,119.060669 216.046082,117.435593
	C213.788177,110.523445 211.629990,103.946655 209.289154,96.813286
	C208.950439,96.833527 207.485825,96.921036 205.610397,96.910934
	C203.621231,96.813324 202.042877,96.813324 199.788132,96.813324
	C200.330261,93.928596 200.412064,91.811066 201.134888,89.941368
	C204.091263,82.294296 207.243362,74.722885 210.599854,66.956635
	C213.303345,64.284546 215.730392,61.779427 218.486725,59.151337
	C222.220474,56.961426 225.624969,54.894489 229.411591,52.794876
	C232.546127,52.174591 235.298538,51.586983 238.447357,51.085617
	C241.539688,51.618160 244.235626,52.064468 247.185593,52.706451
	C249.299850,53.633938 251.160049,54.365753 253.200394,55.371429
	C255.854340,57.149498 258.328156,58.653702 260.950317,60.463509
	C264.414856,62.278103 264.848022,68.020012 270.440674,66.903717
	C273.253906,66.928230 275.627350,66.881386 278.372955,66.906219
	C281.171448,67.057518 282.707489,66.880585 283.405701,63.593349
	C285.563629,53.434204 288.379181,43.412975 291.050262,33.367683
	C291.289185,32.469173 292.331055,31.784164 293.000000,31.000000
M101.121254,13.036501
	C97.797798,13.134654 94.474342,13.232807 90.365150,13.292297
	C88.318245,13.666470 86.271332,14.040641 83.474495,14.419199
	C81.312988,14.981611 79.151482,15.544024 76.217613,16.041679
	C72.448479,17.348917 68.679352,18.656155 64.182823,19.984179
	C61.430912,21.311838 58.679001,22.639496 55.254150,24.055176
	C53.428013,25.336630 51.601875,26.618086 49.105354,27.934603
	C47.388447,29.253201 45.671543,30.571800 43.331329,32.139061
	C41.206039,34.155289 39.080750,36.171516 36.325531,38.435944
	C33.248154,41.982712 30.170776,45.529476 26.528425,49.429855
	C24.312971,52.661251 22.097517,55.892647 19.358778,59.501137
	C11.968411,71.502739 6.261353,84.152512 3.895755,98.431435
	C5.549669,98.525398 6.686281,98.628708 7.824329,98.648216
	C14.224030,98.757866 14.470828,99.279419 13.206840,105.500916
	C10.927211,116.721550 13.886718,127.094742 18.984163,137.752762
	C21.601645,141.187698 24.219126,144.622650 27.106869,148.689362
	C30.390949,151.051514 33.675030,153.413681 37.403889,156.167389
	C39.587975,157.117905 41.772064,158.068436 44.316891,159.521622
	C46.544098,160.292099 48.771301,161.062576 51.699451,161.980194
	C52.413410,162.013824 53.127369,162.047470 54.319103,162.529846
	C56.873814,162.945801 59.428520,163.361755 62.598869,164.078476
	C64.335411,164.098099 66.071953,164.117737 68.570709,164.491348
	C74.384911,164.268158 80.199104,164.044968 86.849190,163.939468
	C90.607574,163.328751 94.365959,162.718033 98.887794,162.141998
	C100.590149,161.720963 102.292511,161.299927 104.759125,160.950592
	C107.169212,160.288712 109.579300,159.626846 112.746407,159.014557
	C115.491112,158.044785 118.235809,157.075012 121.749199,156.228821
	C124.508949,155.163422 127.268692,154.098007 130.781509,153.017609
	C132.342377,151.817612 134.904312,150.879471 135.298080,149.374176
	C137.491852,140.987823 139.160172,132.464020 141.436081,123.386513
	C143.356857,115.199318 145.277634,107.012123 147.253403,98.590538
	C143.277588,98.320076 140.179337,98.109306 137.198120,97.142876
	C138.704590,90.559677 140.211060,83.976479 141.812073,76.980118
	C137.550903,76.980118 133.768707,76.980118 129.105515,76.778809
	C126.397728,76.850578 123.689949,76.922348 120.101082,76.792503
	C117.394623,76.862068 114.688171,76.931633 111.113312,76.800255
	C108.737221,76.869087 106.361122,76.937920 103.126869,76.809555
	C101.076614,76.876831 99.026360,76.944099 96.072975,76.814026
	C92.042252,76.880226 88.011536,76.946426 83.072044,76.820778
	C79.911034,76.808609 76.732597,76.602791 73.598061,76.884819
	C72.433937,76.989563 70.631996,78.044716 70.384254,78.995605
	C68.727211,85.355629 67.411392,91.804558 65.881340,98.690346
	C68.237862,98.690346 70.056618,98.802879 71.856491,98.666412
	C75.365280,98.400375 76.290558,99.714653 75.197777,103.085106
	C74.184395,106.210663 73.649910,109.491501 72.875984,112.827103
	C77.032066,112.827103 80.518318,112.827103 84.882118,112.972298
	C88.546364,113.058784 92.210617,113.145279 95.700081,113.918198
	C95.422485,115.549561 95.144882,117.180923 94.364632,119.393021
	C92.586884,123.174896 94.802505,129.921753 86.155800,129.103622
	C83.766350,129.117691 81.376892,129.131775 78.239563,128.915482
	C76.175552,128.578644 74.111542,128.241806 71.555557,127.434425
	C68.774582,125.920631 65.993614,124.406837 62.986149,122.220177
	C61.331791,118.468170 59.677433,114.716156 58.123829,110.182549
	C58.107475,109.132812 58.091122,108.083076 58.669197,106.758469
	C58.487782,105.816360 58.306366,104.874245 58.069740,103.157021
	C58.060879,102.124092 58.052017,101.091164 58.303970,99.477692
	C56.047005,99.083107 53.677864,98.981689 51.577412,98.178047
	C50.417797,97.734360 49.708870,96.112732 49.016132,94.228363
	C50.376488,90.222374 51.736847,86.216377 53.654358,81.792625
	C55.474220,78.611160 57.294083,75.429695 59.707550,71.911369
	C62.500912,68.688255 65.294273,65.465141 68.749702,62.009270
	C71.821587,59.891682 74.893471,57.774094 78.629723,55.494297
	C81.412964,54.275726 84.196205,53.057156 87.738098,51.890202
	C90.149559,51.273308 92.561012,50.656418 95.859924,50.165703
	C98.239273,50.064209 100.618629,49.962719 103.675522,50.081017
	C104.385437,50.101990 105.095360,50.122963 106.477081,50.553551
	C109.549408,51.103035 112.621735,51.652523 116.197929,52.686848
	C118.809372,54.410828 121.420807,56.134804 124.219772,58.571617
	C124.837601,59.922512 125.811089,61.223488 126.008965,62.633327
	C126.701637,67.568443 129.584290,68.793793 134.878479,67.964928
	C136.505951,67.972031 138.143417,67.866135 139.758881,68.009071
	C143.460464,68.336601 144.653748,66.559570 144.557770,62.551079
	C146.502502,54.169407 148.370026,45.768875 150.411835,37.410915
	C152.872528,27.338194 152.936569,27.353840 142.644882,23.207590
	C139.767471,22.140398 136.890060,21.073204 133.507462,19.506815
	C131.002716,18.719458 128.497986,17.932100 125.320717,16.818167
	C122.879463,16.255953 120.438217,15.693739 117.242851,14.854879
	C114.826416,14.554941 112.409973,14.255003 109.290031,13.590985
	C106.869125,13.457597 104.448227,13.324208 101.121254,13.036501
z"/>
</svg>