<svg version="1.0" xmlns="http://www.w3.org/2000/svg"
 width="292.000000pt" height="170.000000pt" viewBox="0 0 292.000000 170.000000"
 preserveAspectRatio="xMidYMid meet">

<g transform="translate(0.000000,170.000000) scale(0.100000,-0.100000)"
fill="#000000" stroke="none">
<path d="M2240 1554 c-266 -57 -478 -225 -603 -478 -41 -82 -84 -208 -100
-293 l-6 -33 52 0 52 0 0 -138 c0 -108 4 -148 19 -192 114 -331 517 -432 976
-246 116 47 99 9 195 424 5 21 3 22 -65 22 -60 0 -76 -4 -118 -30 -66 -41
-176 -90 -237 -106 -181 -49 -305 35 -305 209 l0 47 -55 0 c-52 0 -55 1 -55
24 0 47 50 182 88 242 45 69 112 133 174 165 33 18 60 23 118 24 92 0 154 -26
246 -103 62 -52 62 -52 133 -52 39 0 71 2 71 5 0 3 20 91 45 196 25 105 45
195 45 200 0 17 -170 90 -256 109 -107 24 -314 26 -414 4z"/>
<path d="M1342 1268 l3 -233 38 -3 c20 -2 37 0 37 5 0 4 20 93 45 198 24 104
43 190 42 191 -8 7 -126 63 -145 68 l-22 7 2 -233z"/>
<path d="M1341 593 c1 -390 -5 -383 68 -74 23 96 41 180 41 187 0 10 -15 14
-49 14 l-49 0 20 88 c10 48 22 97 25 110 4 19 1 22 -26 22 l-31 0 1 -347z"/>
</g>
</svg>
